<svg width="793" height="564" viewBox="0 0 793 564" fill="none" xmlns="http://www.w3.org/2000/svg">
<path d="M423.52 671.956C513.859 670.653 601.399 628.434 672.435 565.593C723.781 520.117 768.758 461.509 786.806 390.854C804.951 320.199 782.077 259.963 733.24 211.123C688.07 166.081 622.536 162.5 572.155 125.056C535.479 97.8136 510.578 39.9652 467.821 28.7863C428.635 18.4756 392.442 38.1202 360.399 65.6877C328.355 93.2552 302.586 114.853 271.314 143.398C246.124 166.407 217.748 184.749 187.442 197.556C132.138 220.999 66.99 228.922 28.5766 279.39C-0.474712 317.703 -6.45871 373.814 6.47444 422.003C19.4076 470.192 49.231 510.784 84.1698 542.15C175.281 624.093 307.315 673.692 423.52 671.956Z" fill="#E3E6E8"/>
<path d="M662.5 431.734C634.3 462.737 588.7 434.487 563.3 402.761C558.8 397.256 555.7 389.867 554.4 381.61C548.6 341.771 592 332.064 593.3 296.282C593.9 280.636 585.8 267.743 579.8 254.704C566.2 225.151 562.3 187.63 565.2 152.282C568.1 116.934 577.2 83.1792 587.9 51.0182C596.6 24.7969 612.2 -5.04617 631.8 1.32807C644.4 5.38441 652.5 23.6379 656.2 41.6017C661.2 66.3743 660.5 92.8854 657.1 118.238C655.6 129.392 653.6 141.127 655.7 152.137C661 180.386 688.3 186.761 698.2 212.113C708.1 237.61 696.3 269.626 685.1 294.543C675.5 315.984 669.8 329.312 676 347.421C677.7 352.201 680 356.547 682.9 359.879C689 367.413 700.2 390.302 662.5 431.734Z" fill="#F3AF47"/>
<path d="M625.1 74.3421C625.1 83.1792 619 572.547 619 572.547L643 571.244L625.1 74.3421Z" fill="#7C4A0F"/>
<path d="M626.6 417.682L577 340.901L630.9 411.163C631.8 412.177 632.2 413.916 632 415.509C631.8 417.103 631 418.406 629.9 418.986C628.8 419.565 627.6 419.131 626.8 417.972L626.6 417.682ZM622.1 197.481L602 140.982L626.1 194.294C626.9 195.308 627.2 196.901 626.8 198.205C626.4 199.654 625.4 200.523 624.4 200.378C623.3 200.233 622.5 199.219 622.2 197.626L622.1 197.481ZM627.6 315.26L678 211.968L632.5 320.04C631.6 322.068 629.8 322.793 628.4 321.489C627 320.185 626.6 317.578 627.4 315.549L627.6 315.26Z" fill="#7C4A0F"/>
<path d="M168.5 521.408C149.4 542.414 118.5 523.292 101.4 501.851C98.4 498.085 96.3 493.014 95.4 487.509C91.5 460.563 120.8 453.899 121.7 429.851C122.1 419.276 116.6 410.584 112.5 401.746C103.3 381.61 100.7 356.258 102.6 332.209C104.5 308.161 110.7 285.417 118 263.686C123.9 245.867 134.5 225.73 147.7 230.076C156.2 232.829 161.7 245.143 164.2 257.312C167.6 273.972 167.1 291.936 164.8 309.175C163.8 316.708 162.4 324.531 163.8 332.064C167.4 351.187 185.9 355.533 192.6 372.773C199.3 390.012 191.3 411.742 183.8 428.547C177.4 443.034 173.4 452.016 177.6 464.475C178.8 467.662 180.4 470.559 182.3 473.022C186.4 477.948 194 493.449 168.5 521.408Z" fill="#F8CD99"/>
<path d="M141.8 273.972C141.8 280.346 135.7 587.179 135.7 587.179L153.3 589.352L141.8 273.972Z" fill="#7C6242"/>
<path d="M146.1 459.549L181.9 404.644L143 454.913C142.1 456.072 142.1 458.101 142.9 459.404C143.7 460.708 145 460.853 146 459.694L146.1 459.549ZM139.2 363.646L124.6 321.779L142 361.328C142.4 362.487 142.1 363.791 141.4 364.515C140.7 365.239 139.7 364.95 139.2 363.936C139.3 363.936 139.2 363.646 139.2 363.646Z" fill="#7C6242"/>
<path d="M144.5 450.857L179.7 374.366C179.7 374.366 144.5 450.857 144.5 450.857Z" fill="#9C4F5F"/>
</svg>
